<svg width="200" height="50" viewBox="0 0 200 50" fill="none" xmlns="http://www.w3.org/2000/svg">
  <!-- Background -->
  <rect width="200" height="50" rx="8" fill="#f8f9fa"/>
  
  <!-- Logo Icon - Gear + Car -->
  <g transform="translate(15, 10)">
    <!-- Gear -->
    <circle cx="15" cy="15" r="12" fill="none" stroke="#F59E0B" stroke-width="2"/>
    <circle cx="15" cy="15" r="8" fill="#F59E0B"/>
    <!-- Gear teeth -->
    <rect x="13" y="2" width="4" height="6" rx="2" fill="#F59E0B"/>
    <rect x="13" y="22" width="4" height="6" rx="2" fill="#F59E0B"/>
    <rect x="2" y="13" width="6" height="4" rx="2" fill="#F59E0B"/>
    <rect x="22" y="13" width="6" height="4" rx="2" fill="#F59E0B"/>
    <rect x="6" y="6" width="4" height="4" rx="2" fill="#F59E0B"/>
    <rect x="20" y="6" width="4" height="4" rx="2" fill="#F59E0B"/>
    <rect x="6" y="20" width="4" height="4" rx="2" fill="#F59E0B"/>
    <rect x="20" y="20" width="4" height="4" rx="2" fill="#F59E0B"/>
    
    <!-- Car icon inside gear -->
    <rect x="9" y="12" width="12" height="6" rx="3" fill="white"/>
    <circle cx="11" cy="11" r="2" fill="white"/>
    <circle cx="19" cy="11" r="2" fill="white"/>
  </g>
  
  <!-- Brand Name -->
  <text x="45" y="32" font-family="Arial, sans-serif" font-size="20" font-weight="bold" fill="#1a1a2e">
    AutoTradeHub
  </text>
  
  <!-- Tagline -->
  <text x="45" y="42" font-family="Arial, sans-serif" font-size="8" fill="#666" letter-spacing="1">
    DRIVE YOUR BUSINESS
  </text>
</svg>
